<svg _ngcontent-gts-c131="" version="1.1" id="Ebene_1" xmlns="http://www.w3.org/2000/svg" x="0px" y="0px" viewBox="0 0 184 106" xml:space="preserve" style="enable-background: new 0 0 167 65;"><style _ngcontent-gts-c131="" type="text/css" class="ng-tns-c131-1"> .st0 { fill: #ffffff; } .st1 { fill: #0038a6; } </style><rect _ngcontent-gts-c131="" width="167" height="65" class="st0 ng-tns-c131-1"></rect><g _ngcontent-gts-c131="" class="ng-tns-c131-1"><path _ngcontent-gts-c131="" d="M20.7,24.4H0.1v5.3h16.3c1.9,0,3.4,1.5,3.4,3.4v30.2c0,1.9-1.6,3.4-3.4,3.4c0,0-2.9,0-6.2,0l0-32.1l-10.1,0
		v37.6h20.6c4.8,0,8.7-3.9,8.8-8.7V33.1C29.4,28.3,25.5,24.4,20.7,24.4L20.7,24.4z" class="st1 ng-tns-c131-1"></path><path _ngcontent-gts-c131="" d="M38.3,38.1c-4.1,1-5.3,2.4-5.8,2.8v31.2h9.6V46.3c-0.1-3.2,4.7-4.3,7.8-2l0-7.1C44.3,37.2,40.9,37.6,38.3,38.1
		L38.3,38.1z" class="st1 ng-tns-c131-1"></path><path _ngcontent-gts-c131="" d="M143.5,38.1c-4.1,1-5.3,2.4-5.8,2.8v31.3h9.6V46.3c-0.1-3.2,4.7-4.3,7.8-2v-7.1
		C149.4,37.2,146,37.6,143.5,38.1L143.5,38.1z" class="st1 ng-tns-c131-1"></path><path _ngcontent-gts-c131="" d="M67.5,37.2H51.9v7.1c0,0,5.5-1.9,9.3-1.9c4.7,0,4.9,2.3,4.9,3.4V50c-3.1,0-9.4,0-9.4,0c-4.3,0-7.8,3.5-7.8,7.7
		v6.7c0,4.3,3.5,7.8,7.8,7.8h19V45.3C75.7,40.5,71.8,37.2,67.5,37.2L67.5,37.2z M66.1,66.7h-4.5c-2.1,0-3.6-1.5-3.6-3.6
		c0-1.7,0-1.9,0-4c0-2,1.6-3.6,3.6-3.6h4.5V66.7L66.1,66.7z" class="st1 ng-tns-c131-1"></path><path _ngcontent-gts-c131="" d="M62.3,28.6c0-2.9-2.4-5.2-5.3-5.2c-2.9,0-5.3,2.3-5.3,5.2c0,2.9,2.4,5.2,5.3,5.2C60,33.9,62.3,31.5,62.3,28.6
		L62.3,28.6z" class="st1 ng-tns-c131-1"></path><path _ngcontent-gts-c131="" d="M75,28.6c0-2.9-2.4-5.2-5.3-5.2c-2.9,0-5.3,2.3-5.3,5.2c0,2.9,2.4,5.2,5.3,5.2C72.7,33.9,75,31.5,75,28.6
		L75,28.6z" class="st1 ng-tns-c131-1"></path><path _ngcontent-gts-c131="" d="M86.6,37.2c-4.8,0-8.2,3.9-8.1,8.2v5.8c0,4.8,3.9,8.1,8.2,8.1h9.7c4.8,0,8.1-3.9,8.1-8.2V37.2H86.6L86.6,37.2z
		 M95.8,50.1c0,1.5-0.4,4.1-4.1,4.1c-3.7,0-4.1-2.6-4.1-4.1v-3.5c0-1.5,0.4-4.1,4.1-4.1c3.7,0,4.1,2.6,4.1,4.1V50.1L95.8,50.1z" class="st1 ng-tns-c131-1"></path><path _ngcontent-gts-c131="" d="M97.2,60.6l-10.9,0c-4.8,0-8.2,3.9-8.1,8.1v5.8c0,4.8,3.9,8.2,8.2,8.2h10.9c4.8,0,8.2-4,8.1-8.2v-5.8
		C105.3,63.9,101.4,60.6,97.2,60.6L97.2,60.6z M96.2,73.5c0,1.5-0.4,4.1-4.4,4.1c-3.9,0-4.4-2.6-4.4-4.1V70c0-1.5,0.4-4.1,4.4-4.1
		c3.9,0,4.4,2.6,4.4,4.1V73.5L96.2,73.5z" class="st1 ng-tns-c131-1"></path><path _ngcontent-gts-c131="" d="M134.7,59.1V45.3c0-4.8-4-8.1-8.2-8.1l-10.8,0c-4.3,0-8.2,3.3-8.2,8.1v18.8c0,4.8,3.9,8.1,8.6,8.1h18.3v-7.1
		c0,0-6.2,1.8-12.1,1.7c-3.8,0-5.3-1.6-5.3-3.4v-4.3H134.7L134.7,59.1z M116.9,53.7v-7.1c0-1.5,0.5-4.1,4.1-4.1
		c3.6,0,4.1,2.6,4.1,4.1v7.1H116.9L116.9,53.7z" class="st1 ng-tns-c131-1"></path></g></svg>